<?xml version="1.0" encoding="utf-8"?>
<!-- Generator: Adobe Illustrator 17.1.0, SVG Export Plug-In . SVG Version: 6.00 Build 0)  -->
<!DOCTYPE svg PUBLIC "-//W3C//DTD SVG 1.1//EN" "http://www.w3.org/Graphics/SVG/1.1/DTD/svg11.dtd">
<svg version="1.1" id="Layer_1" xmlns="http://www.w3.org/2000/svg" xmlns:xlink="http://www.w3.org/1999/xlink" x="0px" y="0px"
	 width="1000px" height="560px" viewBox="0 0 1000 560" enable-background="new 0 0 1000 560" xml:space="preserve">
<g>
	<rect fill="#B7B7B7" width="1000" height="560"/>
	<g>
		<path fill="#828282" d="M301.6,315.5v-79.2h34.5c18.5,0,27.7,7.6,27.7,22.8c0,15.8-9.2,23.6-27.7,23.6h-18.7v32.7L301.6,315.5
			L301.6,315.5z M317.4,268h22.2c6.4-0.1,9.6-3,9.8-8.7c-0.2-5.2-3.4-7.9-9.7-8.1h-22.3V268L317.4,268z"/>
		<path fill="#828282" d="M375.5,315.5v-79.2h15.8V268h36.9v-31.7H444v79.2l-15.8,0.1v-32.7h-36.9v32.7h-15.8L375.5,315.5
			L375.5,315.5z"/>
		<path fill="#828282" d="M468.5,304.1c-7.6-7.6-11.3-17-11.3-28.2c0-11.3,3.8-20.7,11.3-28.2c7.6-7.6,17-11.3,28.2-11.3
			c11.3,0,20.7,3.8,28.2,11.3c7.6,7.6,11.3,17,11.3,28.2c0,11.3-3.8,20.7-11.3,28.2s-17,11.3-28.2,11.3
			C485.5,315.5,476.1,311.7,468.5,304.1z M496.8,300.7c7,0,12.7-2.4,17.1-7.1c4.4-4.8,6.6-10.6,6.6-17.7c0-7-2.2-12.9-6.6-17.7
			s-10.1-7.1-17.2-7.1c-7,0-12.7,2.4-17.1,7.1s-6.6,10.6-6.6,17.7c0,7,2.2,12.9,6.6,17.7C484,298.3,489.7,300.7,496.8,300.7z"/>
		<path fill="#828282" d="M612.7,236.3v14.8h-26.4v64.4h-15.8v-64.4h-26.4v-14.8H612.7L612.7,236.3z"/>
		<path fill="#828282" d="M631.8,304.1c-7.6-7.6-11.3-17-11.3-28.2c0-11.3,3.8-20.7,11.3-28.2c7.6-7.6,17-11.3,28.2-11.3
			c11.3,0,20.7,3.8,28.2,11.3c7.6,7.6,11.3,17,11.3,28.2c0,11.3-3.8,20.7-11.3,28.2s-17,11.3-28.2,11.3
			C648.8,315.5,639.4,311.7,631.8,304.1z M660.1,300.7c7,0,12.7-2.4,17.1-7.1c4.4-4.8,6.6-10.6,6.6-17.7c0-7-2.2-12.9-6.6-17.7
			c-4.4-4.8-10.1-7.1-17.2-7.1c-7,0-12.7,2.4-17.1,7.1s-6.6,10.6-6.6,17.7c0,7,2.2,12.9,6.6,17.7C647.3,298.3,653,300.7,660.1,300.7
			z"/>
	</g>
</g>
<g enable-background="new    ">
	<path fill="#FFFFFF" d="M479.1,360.9c-0.1,0.5-0.2,0.9-0.2,1.2c0,1.1,0.4,1.6,1.2,1.6c0.8,0,1.6-0.4,2.4-1.1
		c0.8-0.7,1.6-1.6,2.3-2.8c0.7-1.1,1.2-2.4,1.7-3.8c0.4-1.4,0.7-2.8,0.7-4.1c0-2-0.4-3.8-1.1-5.5s-1.8-3-3.1-4.2
		c-1.3-1.1-2.8-2-4.4-2.6c-1.6-0.6-3.4-0.9-5.2-0.9c-2.2,0-4.2,0.4-6.1,1.3c-1.9,0.9-3.5,2-4.9,3.5c-1.4,1.5-2.5,3.2-3.3,5.2
		c-0.8,2-1.2,4.1-1.2,6.3c0,2.3,0.4,4.4,1.2,6.4c0.8,2,2,3.7,3.4,5.1c1.4,1.4,3.1,2.6,5,3.4c1.9,0.8,3.9,1.2,6.1,1.2
		c2.4,0,4.8-0.6,7.1-1.7c2.3-1.1,4.1-2.6,5.6-4.5h3.2c-0.8,1.4-1.8,2.7-3,3.8c-1.2,1.1-2.4,2-3.8,2.8s-2.8,1.3-4.4,1.7
		c-1.6,0.4-3.2,0.6-4.8,0.6c-2.7,0-5.2-0.5-7.5-1.5c-2.3-1-4.4-2.3-6.1-4.1c-1.7-1.7-3.1-3.7-4.1-6.1c-1-2.3-1.5-4.9-1.5-7.6
		c0-2.6,0.5-5.1,1.5-7.4c1-2.3,2.4-4.3,4.1-6c1.7-1.7,3.7-3.1,6-4.1c2.3-1,4.7-1.5,7.3-1.5c2.3,0,4.6,0.4,6.7,1.2
		c2.1,0.8,4,1.9,5.5,3.2c1.6,1.4,2.8,3,3.7,4.9c0.9,1.9,1.4,4,1.4,6.3c0,2.2-0.4,4.2-1.2,6c-0.8,1.8-1.8,3.4-3,4.7
		c-1.2,1.3-2.5,2.3-3.9,3c-1.4,0.7-2.7,1.1-3.9,1.1c-0.9,0-1.6-0.3-2.2-0.8c-0.6-0.5-1-1.4-1-2.5h-0.2c-0.8,0.9-1.7,1.7-2.8,2.4
		c-1.1,0.7-2.3,1-3.5,1c-1.1,0-2.1-0.2-3-0.6c-0.9-0.4-1.7-1-2.3-1.7c-0.6-0.7-1.1-1.6-1.5-2.5c-0.4-1-0.5-2-0.5-3.2
		c0-1.8,0.3-3.5,0.9-5.3c0.6-1.7,1.4-3.3,2.4-4.6c1-1.4,2.3-2.5,3.8-3.3c1.5-0.8,3.1-1.3,4.9-1.3c1.2,0,2.3,0.3,3.3,0.9
		c1,0.6,1.8,1.7,2.4,3.2l1.2-3.2h3.2l-4.3,14.5C479.3,360,479.2,360.5,479.1,360.9z M470.4,348.6c-1,0.7-1.9,1.6-2.6,2.6
		c-0.7,1.1-1.3,2.2-1.7,3.4c-0.4,1.2-0.6,2.4-0.6,3.5c0,1.4,0.4,2.6,1.2,3.5c0.8,0.9,1.9,1.4,3.2,1.4c1.1,0,2.2-0.4,3.1-1.1
		c1-0.7,1.8-1.6,2.5-2.8c0.7-1.1,1.3-2.3,1.7-3.5c0.4-1.3,0.6-2.4,0.6-3.5c0-0.6-0.1-1.2-0.3-1.8c-0.2-0.6-0.5-1.1-0.9-1.5
		c-0.4-0.4-0.8-0.8-1.3-1c-0.5-0.3-1-0.4-1.6-0.4C472.5,347.6,471.4,347.9,470.4,348.6z"/>
	<path fill="#FFFFFF" d="M495.8,344.9c0.5-1.6,1.2-2.9,2.2-4.1c1-1.1,2.3-2,3.7-2.7c1.5-0.6,3.2-1,5.1-1c1.6,0,3,0.2,4.4,0.7
		c1.4,0.5,2.6,1.1,3.6,2c1,0.9,1.8,1.9,2.4,3.2c0.6,1.3,0.9,2.8,0.9,4.5c0,1.6-0.2,3-0.7,4.2c-0.5,1.2-1.1,2.3-2,3.3
		c-0.8,1-1.8,1.8-2.8,2.6c-1.1,0.8-2.1,1.5-3.3,2.2c-1.1,0.7-2.2,1.4-3.4,2c-1.1,0.7-2.1,1.4-3.1,2.1c-0.9,0.7-1.7,1.6-2.4,2.4
		c-0.7,0.9-1.1,1.9-1.3,3h18.6v3.8h-23.6c0.2-2.1,0.6-4,1.1-5.5c0.6-1.5,1.4-2.8,2.3-4c0.9-1.1,2-2.1,3.1-3c1.2-0.8,2.4-1.6,3.6-2.4
		c1.5-1,2.9-1.8,4-2.6c1.2-0.8,2.1-1.6,2.9-2.4c0.8-0.8,1.3-1.7,1.7-2.7c0.4-1,0.6-2.1,0.6-3.3c0-1-0.2-1.9-0.6-2.7
		c-0.4-0.8-0.9-1.5-1.5-2.1c-0.6-0.6-1.4-1-2.2-1.3c-0.9-0.3-1.8-0.5-2.7-0.5c-1.3,0-2.3,0.3-3.2,0.8c-0.9,0.5-1.6,1.2-2.2,2.1
		c-0.6,0.8-1,1.8-1.2,2.9c-0.3,1.1-0.4,2.1-0.3,3.2h-4.3C495.2,348.1,495.3,346.4,495.8,344.9z"/>
	<path fill="#FFFFFF" d="M522.5,347h5.6l6.3,9.2l6.6-9.2h5.2l-9.1,12.1l10.2,14.2h-5.6l-7.3-10.9l-7.3,10.9h-5.3l9.9-13.9L522.5,347
		z"/>
</g>
</svg>
