<?xml version="1.0" encoding="utf-8"?>
<!-- Generator: Adobe Illustrator 17.1.0, SVG Export Plug-In . SVG Version: 6.00 Build 0)  -->
<!DOCTYPE svg PUBLIC "-//W3C//DTD SVG 1.1//EN" "http://www.w3.org/Graphics/SVG/1.1/DTD/svg11.dtd">
<svg version="1.1" id="Layer_1" xmlns="http://www.w3.org/2000/svg" xmlns:xlink="http://www.w3.org/1999/xlink" x="0px" y="0px"
	 width="1000px" height="560px" viewBox="0 0 1000 560" enable-background="new 0 0 1000 560" xml:space="preserve">
<g>
	<rect fill="#B7B7B7" width="1000" height="560"/>
	<g>
		<path fill="#828282" d="M301.6,315.5v-79.2h34.5c18.5,0,27.7,7.6,27.7,22.8c0,15.8-9.2,23.6-27.7,23.6h-18.7v32.7L301.6,315.5
			L301.6,315.5z M317.4,268h22.2c6.4-0.1,9.6-3,9.8-8.7c-0.2-5.2-3.4-7.9-9.7-8.1h-22.3V268L317.4,268z"/>
		<path fill="#828282" d="M375.5,315.5v-79.2h15.8V268h36.9v-31.7H444v79.2l-15.8,0.1v-32.7h-36.9v32.7h-15.8L375.5,315.5
			L375.5,315.5z"/>
		<path fill="#828282" d="M468.5,304.1c-7.6-7.6-11.3-17-11.3-28.2c0-11.3,3.8-20.7,11.3-28.2c7.6-7.6,17-11.3,28.2-11.3
			c11.3,0,20.7,3.8,28.2,11.3c7.6,7.6,11.3,17,11.3,28.2c0,11.3-3.8,20.7-11.3,28.2s-17,11.3-28.2,11.3
			C485.5,315.5,476.1,311.7,468.5,304.1z M496.8,300.7c7,0,12.7-2.4,17.1-7.1c4.4-4.8,6.6-10.6,6.6-17.7c0-7-2.2-12.9-6.6-17.7
			s-10.1-7.1-17.2-7.1c-7,0-12.7,2.4-17.1,7.1s-6.6,10.6-6.6,17.7c0,7,2.2,12.9,6.6,17.7C484,298.3,489.7,300.7,496.8,300.7z"/>
		<path fill="#828282" d="M612.7,236.3v14.8h-26.4v64.4h-15.8v-64.4h-26.4v-14.8H612.7L612.7,236.3z"/>
		<path fill="#828282" d="M631.8,304.1c-7.6-7.6-11.3-17-11.3-28.2c0-11.3,3.8-20.7,11.3-28.2c7.6-7.6,17-11.3,28.2-11.3
			c11.3,0,20.7,3.8,28.2,11.3c7.6,7.6,11.3,17,11.3,28.2c0,11.3-3.8,20.7-11.3,28.2s-17,11.3-28.2,11.3
			C648.8,315.5,639.4,311.7,631.8,304.1z M660.1,300.7c7,0,12.7-2.4,17.1-7.1c4.4-4.8,6.6-10.6,6.6-17.7c0-7-2.2-12.9-6.6-17.7
			c-4.4-4.8-10.1-7.1-17.2-7.1c-7,0-12.7,2.4-17.1,7.1s-6.6,10.6-6.6,17.7c0,7,2.2,12.9,6.6,17.7C647.3,298.3,653,300.7,660.1,300.7
			z"/>
	</g>
</g>
</svg>
